<svg width="35" height="35" viewBox="0 0 35 35" fill="none" xmlns="http://www.w3.org/2000/svg">
<g clip-path="url(#clip0_34_67)">
<path d="M19.6875 7.47168V24.0625C19.6875 25.2725 18.71 26.25 17.5 26.25C16.29 26.25 15.3125 25.2725 15.3125 24.0625V7.47168L10.2949 12.4893C9.44043 13.3438 8.05273 13.3438 7.19824 12.4893C6.34375 11.6348 6.34375 10.2471 7.19824 9.39258L15.9482 0.642578C16.8027 -0.211914 18.1904 -0.211914 19.0449 0.642578L27.7949 9.39258C28.6494 10.2471 28.6494 11.6348 27.7949 12.4893C26.9404 13.3438 25.5527 13.3438 24.6982 12.4893L19.6875 7.47168ZM4.375 24.0625H13.125C13.125 26.4756 15.0869 28.4375 17.5 28.4375C19.9131 28.4375 21.875 26.4756 21.875 24.0625H30.625C33.0381 24.0625 35 26.0244 35 28.4375V30.625C35 33.0381 33.0381 35 30.625 35H4.375C1.96191 35 0 33.0381 0 30.625V28.4375C0 26.0244 1.96191 24.0625 4.375 24.0625ZM29.5312 31.1719C29.9664 31.1719 30.3837 30.999 30.6913 30.6913C30.999 30.3837 31.1719 29.9664 31.1719 29.5312C31.1719 29.0961 30.999 28.6788 30.6913 28.3712C30.3837 28.0635 29.9664 27.8906 29.5312 27.8906C29.0961 27.8906 28.6788 28.0635 28.3712 28.3712C28.0635 28.6788 27.8906 29.0961 27.8906 29.5312C27.8906 29.9664 28.0635 30.3837 28.3712 30.6913C28.6788 30.999 29.0961 31.1719 29.5312 31.1719Z" fill="url(#paint0_linear_34_67)"/>
</g>
<defs>
<linearGradient id="paint0_linear_34_67" x1="17.5" y1="0.00170898" x2="17.5" y2="35" gradientUnits="userSpaceOnUse">
<stop stop-color="#C94061"/>
<stop offset="1" stop-color="#9D1A3A"/>
</linearGradient>
<clipPath id="clip0_34_67">
<rect width="35" height="35" fill="white"/>
</clipPath>
</defs>
</svg>
