<svg width="46" height="40" viewBox="0 0 46 40" fill="none" xmlns="http://www.w3.org/2000/svg">
<path d="M43.8961 9.69398C43.3945 7.84633 41.9166 6.39117 40.0401 5.89734C36.6388 5 23.0001 5 23.0001 5C23.0001 5 9.36138 5 5.96002 5.89734C4.08352 6.39125 2.60561 7.84633 2.104 9.69398C1.19263 13.043 1.19263 20.0303 1.19263 20.0303C1.19263 20.0303 1.19263 27.0177 2.104 30.3666C2.60561 32.2143 4.08352 33.6088 5.96002 34.1027C9.36138 35 23.0001 35 23.0001 35C23.0001 35 36.6387 35 40.0401 34.1027C41.9166 33.6088 43.3945 32.2143 43.8961 30.3666C44.8075 27.0177 44.8075 20.0303 44.8075 20.0303C44.8075 20.0303 44.8075 13.043 43.8961 9.69398ZM18.5394 26.3743V13.6863L29.9387 20.0305L18.5394 26.3743Z" fill="url(#paint0_linear_33_44)"/>
<defs>
<linearGradient id="paint0_linear_33_44" x1="23.0001" y1="5" x2="23.0001" y2="35" gradientUnits="userSpaceOnUse">
<stop stop-color="#C94061"/>
<stop offset="1" stop-color="#9D1A3A"/>
</linearGradient>
</defs>
</svg>
