<svg id="visual" viewBox="0 0 900 600" width="900" height="600" xmlns="http://www.w3.org/2000/svg" xmlns:xlink="http://www.w3.org/1999/xlink" version="1.1"><path d="M0 455L25 437.2C50 419.3 100 383.7 150 380C200 376.3 250 404.7 300 419.3C350 434 400 435 450 433.5C500 432 550 428 600 422.2C650 416.3 700 408.7 750 399.5C800 390.3 850 379.7 875 374.3L900 369L900 601L875 601C850 601 800 601 750 601C700 601 650 601 600 601C550 601 500 601 450 601C400 601 350 601 300 601C250 601 200 601 150 601C100 601 50 601 25 601L0 601Z" fill="#79ad81"></path><path d="M0 385L25 398.7C50 412.3 100 439.7 150 445.5C200 451.3 250 435.7 300 422.5C350 409.3 400 398.7 450 394.3C500 390 550 392 600 402.5C650 413 700 432 750 447.2C800 462.3 850 473.7 875 479.3L900 485L900 601L875 601C850 601 800 601 750 601C700 601 650 601 600 601C550 601 500 601 450 601C400 601 350 601 300 601C250 601 200 601 150 601C100 601 50 601 25 601L0 601Z" fill="#63976a"></path><path d="M0 486L25 482.3C50 478.7 100 471.3 150 473.7C200 476 250 488 300 487.7C350 487.3 400 474.7 450 477.7C500 480.7 550 499.3 600 504.7C650 510 700 502 750 489C800 476 850 458 875 449L900 440L900 601L875 601C850 601 800 601 750 601C700 601 650 601 600 601C550 601 500 601 450 601C400 601 350 601 300 601C250 601 200 601 150 601C100 601 50 601 25 601L0 601Z" fill="#4d8254"></path><path d="M0 507L25 509.7C50 512.3 100 517.7 150 520.2C200 522.7 250 522.3 300 526.7C350 531 400 540 450 541.7C500 543.3 550 537.7 600 525.7C650 513.7 700 495.3 750 496C800 496.7 850 516.3 875 526.2L900 536L900 601L875 601C850 601 800 601 750 601C700 601 650 601 600 601C550 601 500 601 450 601C400 601 350 601 300 601C250 601 200 601 150 601C100 601 50 601 25 601L0 601Z" fill="#376d3f"></path><path d="M0 558L25 556.3C50 554.7 100 551.3 150 547.2C200 543 250 538 300 535.5C350 533 400 533 450 540.7C500 548.3 550 563.7 600 561.7C650 559.7 700 540.3 750 533.8C800 527.3 850 533.7 875 536.8L900 540L900 601L875 601C850 601 800 601 750 601C700 601 650 601 600 601C550 601 500 601 450 601C400 601 350 601 300 601C250 601 200 601 150 601C100 601 50 601 25 601L0 601Z" fill="#21592a"></path></svg>