<svg id="visual" viewBox="0 0 4000 600" width="4000" height="600" xmlns="http://www.w3.org/2000/svg" xmlns:xlink="http://www.w3.org/1999/xlink" version="1.1"><path d="M0 107L30.3 135.7C60.7 164.3 121.3 221.7 182 218C242.7 214.3 303.3 149.7 363.8 150.3C424.3 151 484.7 217 545.2 253C605.7 289 666.3 295 727 261.8C787.7 228.7 848.3 156.3 909 138C969.7 119.7 1030.3 155.3 1091 147.7C1151.7 140 1212.3 89 1273 71.5C1333.7 54 1394.3 70 1454.8 85.7C1515.3 101.3 1575.7 116.7 1636.2 150.3C1696.7 184 1757.3 236 1818 252.8C1878.7 269.7 1939.3 251.3 2000 225.5C2060.7 199.7 2121.3 166.3 2182 169.3C2242.7 172.3 2303.3 211.7 2363.8 205.7C2424.3 199.7 2484.7 148.3 2545.2 129.3C2605.7 110.3 2666.3 123.7 2727 155.7C2787.7 187.7 2848.3 238.3 2909 255.2C2969.7 272 3030.3 255 3091 210.2C3151.7 165.3 3212.3 92.7 3273 71.2C3333.7 49.7 3394.3 79.3 3454.8 103.3C3515.3 127.3 3575.7 145.7 3636.2 163C3696.7 180.3 3757.3 196.7 3818 185.8C3878.7 175 3939.3 137 3969.7 118L4000 99L4000 601L3969.7 601C3939.3 601 3878.7 601 3818 601C3757.3 601 3696.7 601 3636.2 601C3575.7 601 3515.3 601 3454.8 601C3394.3 601 3333.7 601 3273 601C3212.3 601 3151.7 601 3091 601C3030.3 601 2969.7 601 2909 601C2848.3 601 2787.7 601 2727 601C2666.3 601 2605.7 601 2545.2 601C2484.7 601 2424.3 601 2363.8 601C2303.3 601 2242.7 601 2182 601C2121.3 601 2060.7 601 2000 601C1939.3 601 1878.7 601 1818 601C1757.3 601 1696.7 601 1636.2 601C1575.7 601 1515.3 601 1454.8 601C1394.3 601 1333.7 601 1273 601C1212.3 601 1151.7 601 1091 601C1030.3 601 969.7 601 909 601C848.3 601 787.7 601 727 601C666.3 601 605.7 601 545.2 601C484.7 601 424.3 601 363.8 601C303.3 601 242.7 601 182 601C121.3 601 60.7 601 30.3 601L0 601Z" fill="#79ad81"></path><path d="M0 327L30.3 328.5C60.7 330 121.3 333 182 342.8C242.7 352.7 303.3 369.3 363.8 331.3C424.3 293.3 484.7 200.7 545.2 174.2C605.7 147.7 666.3 187.3 727 229.8C787.7 272.3 848.3 317.7 909 340.5C969.7 363.3 1030.3 363.7 1091 340.3C1151.7 317 1212.3 270 1273 256.5C1333.7 243 1394.3 263 1454.8 277.3C1515.3 291.7 1575.7 300.3 1636.2 267C1696.7 233.7 1757.3 158.3 1818 137.3C1878.7 116.3 1939.3 149.7 2000 152.3C2060.7 155 2121.3 127 2182 136.7C2242.7 146.3 2303.3 193.7 2363.8 209.8C2424.3 226 2484.7 211 2545.2 223.5C2605.7 236 2666.3 276 2727 277C2787.7 278 2848.3 240 2909 199.7C2969.7 159.3 3030.3 116.7 3091 117.5C3151.7 118.3 3212.3 162.7 3273 209.5C3333.7 256.3 3394.3 305.7 3454.8 321.2C3515.3 336.7 3575.7 318.3 3636.2 276.8C3696.7 235.3 3757.3 170.7 3818 143.7C3878.7 116.7 3939.3 127.3 3969.7 132.7L4000 138L4000 601L3969.7 601C3939.3 601 3878.7 601 3818 601C3757.3 601 3696.7 601 3636.2 601C3575.7 601 3515.3 601 3454.8 601C3394.3 601 3333.7 601 3273 601C3212.3 601 3151.7 601 3091 601C3030.3 601 2969.7 601 2909 601C2848.3 601 2787.7 601 2727 601C2666.3 601 2605.7 601 2545.2 601C2484.7 601 2424.3 601 2363.8 601C2303.3 601 2242.7 601 2182 601C2121.3 601 2060.7 601 2000 601C1939.3 601 1878.7 601 1818 601C1757.3 601 1696.7 601 1636.2 601C1575.7 601 1515.3 601 1454.8 601C1394.3 601 1333.7 601 1273 601C1212.3 601 1151.7 601 1091 601C1030.3 601 969.7 601 909 601C848.3 601 787.7 601 727 601C666.3 601 605.7 601 545.2 601C484.7 601 424.3 601 363.8 601C303.3 601 242.7 601 182 601C121.3 601 60.7 601 30.3 601L0 601Z" fill="#6c9e73"></path><path d="M0 197L30.3 219.8C60.7 242.7 121.3 288.3 182 326.5C242.7 364.7 303.3 395.3 363.8 362.3C424.3 329.3 484.7 232.7 545.2 229C605.7 225.3 666.3 314.7 727 362.7C787.7 410.7 848.3 417.3 909 398.5C969.7 379.7 1030.3 335.3 1091 297.2C1151.7 259 1212.3 227 1273 246.2C1333.7 265.3 1394.3 335.7 1454.8 340.5C1515.3 345.3 1575.7 284.7 1636.2 278.2C1696.7 271.7 1757.3 319.3 1818 332.5C1878.7 345.7 1939.3 324.3 2000 291.3C2060.7 258.3 2121.3 213.7 2182 186.3C2242.7 159 2303.3 149 2363.8 149.2C2424.3 149.3 2484.7 159.7 2545.2 171.2C2605.7 182.7 2666.3 195.3 2727 232.8C2787.7 270.3 2848.3 332.7 2909 320C2969.7 307.3 3030.3 219.7 3091 199.2C3151.7 178.7 3212.3 225.3 3273 251.5C3333.7 277.7 3394.3 283.3 3454.8 289.3C3515.3 295.3 3575.7 301.7 3636.2 311.3C3696.7 321 3757.3 334 3818 353C3878.7 372 3939.3 397 3969.7 409.5L4000 422L4000 601L3969.7 601C3939.3 601 3878.7 601 3818 601C3757.3 601 3696.7 601 3636.2 601C3575.7 601 3515.3 601 3454.8 601C3394.3 601 3333.7 601 3273 601C3212.3 601 3151.7 601 3091 601C3030.3 601 2969.7 601 2909 601C2848.3 601 2787.7 601 2727 601C2666.3 601 2605.7 601 2545.2 601C2484.7 601 2424.3 601 2363.8 601C2303.3 601 2242.7 601 2182 601C2121.3 601 2060.7 601 2000 601C1939.3 601 1878.7 601 1818 601C1757.3 601 1696.7 601 1636.2 601C1575.7 601 1515.3 601 1454.8 601C1394.3 601 1333.7 601 1273 601C1212.3 601 1151.7 601 1091 601C1030.3 601 969.7 601 909 601C848.3 601 787.7 601 727 601C666.3 601 605.7 601 545.2 601C484.7 601 424.3 601 363.8 601C303.3 601 242.7 601 182 601C121.3 601 60.7 601 30.3 601L0 601Z" fill="#5f9066"></path><path d="M0 320L30.3 305.7C60.7 291.3 121.3 262.7 182 279.5C242.7 296.3 303.3 358.7 363.8 358.5C424.3 358.3 484.7 295.7 545.2 269C605.7 242.3 666.3 251.7 727 245C787.7 238.3 848.3 215.7 909 215C969.7 214.3 1030.3 235.7 1091 276.2C1151.7 316.7 1212.3 376.3 1273 398.3C1333.7 420.3 1394.3 404.7 1454.8 400.3C1515.3 396 1575.7 403 1636.2 381.2C1696.7 359.3 1757.3 308.7 1818 299C1878.7 289.3 1939.3 320.7 2000 333.3C2060.7 346 2121.3 340 2182 341.8C2242.7 343.7 2303.3 353.3 2363.8 347.8C2424.3 342.3 2484.7 321.7 2545.2 301.7C2605.7 281.7 2666.3 262.3 2727 252C2787.7 241.7 2848.3 240.3 2909 237.8C2969.7 235.3 3030.3 231.7 3091 258.8C3151.7 286 3212.3 344 3273 380.5C3333.7 417 3394.3 432 3454.8 397C3515.3 362 3575.7 277 3636.2 249.2C3696.7 221.3 3757.3 250.7 3818 258.2C3878.7 265.7 3939.3 251.3 3969.7 244.2L4000 237L4000 601L3969.7 601C3939.3 601 3878.7 601 3818 601C3757.3 601 3696.7 601 3636.2 601C3575.7 601 3515.3 601 3454.8 601C3394.3 601 3333.7 601 3273 601C3212.3 601 3151.7 601 3091 601C3030.3 601 2969.7 601 2909 601C2848.3 601 2787.7 601 2727 601C2666.3 601 2605.7 601 2545.2 601C2484.7 601 2424.3 601 2363.8 601C2303.3 601 2242.7 601 2182 601C2121.3 601 2060.7 601 2000 601C1939.3 601 1878.7 601 1818 601C1757.3 601 1696.7 601 1636.2 601C1575.7 601 1515.3 601 1454.8 601C1394.3 601 1333.7 601 1273 601C1212.3 601 1151.7 601 1091 601C1030.3 601 969.7 601 909 601C848.3 601 787.7 601 727 601C666.3 601 605.7 601 545.2 601C484.7 601 424.3 601 363.8 601C303.3 601 242.7 601 182 601C121.3 601 60.7 601 30.3 601L0 601Z" fill="#538259"></path><path d="M0 345L30.3 360.5C60.7 376 121.3 407 182 397.8C242.7 388.7 303.3 339.3 363.8 335.2C424.3 331 484.7 372 545.2 376C605.7 380 666.3 347 727 348.5C787.7 350 848.3 386 909 407.8C969.7 429.7 1030.3 437.3 1091 429.3C1151.7 421.3 1212.3 397.7 1273 400.5C1333.7 403.3 1394.3 432.7 1454.8 425.3C1515.3 418 1575.7 374 1636.2 358.2C1696.7 342.3 1757.3 354.7 1818 340.8C1878.7 327 1939.3 287 2000 289.8C2060.7 292.7 2121.3 338.3 2182 351C2242.7 363.7 2303.3 343.3 2363.8 349.3C2424.3 355.3 2484.7 387.7 2545.2 392.2C2605.7 396.7 2666.3 373.3 2727 358C2787.7 342.7 2848.3 335.3 2909 322.3C2969.7 309.3 3030.3 290.7 3091 290.8C3151.7 291 3212.3 310 3273 340C3333.7 370 3394.3 411 3454.8 408.7C3515.3 406.3 3575.7 360.7 3636.2 363C3696.7 365.3 3757.3 415.7 3818 406.3C3878.7 397 3939.3 328 3969.7 293.5L4000 259L4000 601L3969.7 601C3939.3 601 3878.7 601 3818 601C3757.3 601 3696.7 601 3636.2 601C3575.7 601 3515.3 601 3454.8 601C3394.3 601 3333.7 601 3273 601C3212.3 601 3151.7 601 3091 601C3030.3 601 2969.7 601 2909 601C2848.3 601 2787.7 601 2727 601C2666.3 601 2605.7 601 2545.2 601C2484.7 601 2424.3 601 2363.8 601C2303.3 601 2242.7 601 2182 601C2121.3 601 2060.7 601 2000 601C1939.3 601 1878.7 601 1818 601C1757.3 601 1696.7 601 1636.2 601C1575.7 601 1515.3 601 1454.8 601C1394.3 601 1333.7 601 1273 601C1212.3 601 1151.7 601 1091 601C1030.3 601 969.7 601 909 601C848.3 601 787.7 601 727 601C666.3 601 605.7 601 545.2 601C484.7 601 424.3 601 363.8 601C303.3 601 242.7 601 182 601C121.3 601 60.7 601 30.3 601L0 601Z" fill="#46744c"></path><path d="M0 357L30.3 349.8C60.7 342.7 121.3 328.3 182 337.3C242.7 346.3 303.3 378.7 363.8 404.3C424.3 430 484.7 449 545.2 456.7C605.7 464.3 666.3 460.7 727 456.7C787.7 452.7 848.3 448.3 909 449C969.7 449.7 1030.3 455.3 1091 436.8C1151.7 418.3 1212.3 375.7 1273 361.5C1333.7 347.3 1394.3 361.7 1454.8 359C1515.3 356.3 1575.7 336.7 1636.2 352.7C1696.7 368.7 1757.3 420.3 1818 427.8C1878.7 435.3 1939.3 398.7 2000 377.8C2060.7 357 2121.3 352 2182 371.7C2242.7 391.3 2303.3 435.7 2363.8 428.2C2424.3 420.7 2484.7 361.3 2545.2 332.7C2605.7 304 2666.3 306 2727 309.2C2787.7 312.3 2848.3 316.7 2909 329.2C2969.7 341.7 3030.3 362.3 3091 369C3151.7 375.7 3212.3 368.3 3273 385.7C3333.7 403 3394.3 445 3454.8 457.7C3515.3 470.3 3575.7 453.7 3636.2 425C3696.7 396.3 3757.3 355.7 3818 336.7C3878.7 317.7 3939.3 320.3 3969.7 321.7L4000 323L4000 601L3969.7 601C3939.3 601 3878.7 601 3818 601C3757.3 601 3696.7 601 3636.2 601C3575.7 601 3515.3 601 3454.8 601C3394.3 601 3333.7 601 3273 601C3212.3 601 3151.7 601 3091 601C3030.3 601 2969.7 601 2909 601C2848.3 601 2787.7 601 2727 601C2666.3 601 2605.7 601 2545.2 601C2484.7 601 2424.3 601 2363.8 601C2303.3 601 2242.7 601 2182 601C2121.3 601 2060.7 601 2000 601C1939.3 601 1878.7 601 1818 601C1757.3 601 1696.7 601 1636.2 601C1575.7 601 1515.3 601 1454.8 601C1394.3 601 1333.7 601 1273 601C1212.3 601 1151.7 601 1091 601C1030.3 601 969.7 601 909 601C848.3 601 787.7 601 727 601C666.3 601 605.7 601 545.2 601C484.7 601 424.3 601 363.8 601C303.3 601 242.7 601 182 601C121.3 601 60.7 601 30.3 601L0 601Z" fill="#3a6640"></path><path d="M0 435L30.3 442C60.7 449 121.3 463 182 468.7C242.7 474.3 303.3 471.7 363.8 459.2C424.3 446.7 484.7 424.3 545.2 419.7C605.7 415 666.3 428 727 432.5C787.7 437 848.3 433 909 424.5C969.7 416 1030.3 403 1091 389.7C1151.7 376.3 1212.3 362.7 1273 371.8C1333.7 381 1394.3 413 1454.8 418C1515.3 423 1575.7 401 1636.2 412.3C1696.7 423.7 1757.3 468.3 1818 477.2C1878.7 486 1939.3 459 2000 456.8C2060.7 454.7 2121.3 477.3 2182 476.3C2242.7 475.3 2303.3 450.7 2363.8 438.7C2424.3 426.7 2484.7 427.3 2545.2 424.2C2605.7 421 2666.3 414 2727 409.3C2787.7 404.7 2848.3 402.3 2909 406.7C2969.7 411 3030.3 422 3091 431.2C3151.7 440.3 3212.3 447.7 3273 451.7C3333.7 455.7 3394.3 456.3 3454.8 466.2C3515.3 476 3575.7 495 3636.2 495.2C3696.7 495.3 3757.3 476.7 3818 462.5C3878.7 448.3 3939.3 438.7 3969.7 433.8L4000 429L4000 601L3969.7 601C3939.3 601 3878.7 601 3818 601C3757.3 601 3696.7 601 3636.2 601C3575.7 601 3515.3 601 3454.8 601C3394.3 601 3333.7 601 3273 601C3212.3 601 3151.7 601 3091 601C3030.3 601 2969.7 601 2909 601C2848.3 601 2787.7 601 2727 601C2666.3 601 2605.7 601 2545.2 601C2484.7 601 2424.3 601 2363.8 601C2303.3 601 2242.7 601 2182 601C2121.3 601 2060.7 601 2000 601C1939.3 601 1878.7 601 1818 601C1757.3 601 1696.7 601 1636.2 601C1575.7 601 1515.3 601 1454.8 601C1394.3 601 1333.7 601 1273 601C1212.3 601 1151.7 601 1091 601C1030.3 601 969.7 601 909 601C848.3 601 787.7 601 727 601C666.3 601 605.7 601 545.2 601C484.7 601 424.3 601 363.8 601C303.3 601 242.7 601 182 601C121.3 601 60.7 601 30.3 601L0 601Z" fill="#2e5933"></path><path d="M0 488L30.3 488.7C60.7 489.3 121.3 490.7 182 482.5C242.7 474.3 303.3 456.7 363.8 465C424.3 473.3 484.7 507.7 545.2 516.2C605.7 524.7 666.3 507.3 727 502.8C787.7 498.3 848.3 506.7 909 507.8C969.7 509 1030.3 503 1091 505.8C1151.7 508.7 1212.3 520.3 1273 506C1333.7 491.7 1394.3 451.3 1454.8 434.2C1515.3 417 1575.7 423 1636.2 424.8C1696.7 426.7 1757.3 424.3 1818 422.3C1878.7 420.3 1939.3 418.7 2000 439.2C2060.7 459.7 2121.3 502.3 2182 502.7C2242.7 503 2303.3 461 2363.8 440.3C2424.3 419.7 2484.7 420.3 2545.2 417.7C2605.7 415 2666.3 409 2727 424.7C2787.7 440.3 2848.3 477.7 2909 487C2969.7 496.3 3030.3 477.7 3091 463.3C3151.7 449 3212.3 439 3273 447.7C3333.7 456.3 3394.3 483.7 3454.8 493.5C3515.3 503.3 3575.7 495.7 3636.2 501.3C3696.7 507 3757.3 526 3818 526.2C3878.7 526.3 3939.3 507.7 3969.7 498.3L4000 489L4000 601L3969.7 601C3939.3 601 3878.7 601 3818 601C3757.3 601 3696.7 601 3636.2 601C3575.7 601 3515.3 601 3454.8 601C3394.3 601 3333.7 601 3273 601C3212.3 601 3151.7 601 3091 601C3030.3 601 2969.7 601 2909 601C2848.3 601 2787.7 601 2727 601C2666.3 601 2605.7 601 2545.2 601C2484.7 601 2424.3 601 2363.8 601C2303.3 601 2242.7 601 2182 601C2121.3 601 2060.7 601 2000 601C1939.3 601 1878.7 601 1818 601C1757.3 601 1696.7 601 1636.2 601C1575.7 601 1515.3 601 1454.8 601C1394.3 601 1333.7 601 1273 601C1212.3 601 1151.7 601 1091 601C1030.3 601 969.7 601 909 601C848.3 601 787.7 601 727 601C666.3 601 605.7 601 545.2 601C484.7 601 424.3 601 363.8 601C303.3 601 242.7 601 182 601C121.3 601 60.7 601 30.3 601L0 601Z" fill="#224c28"></path><path d="M0 474L30.3 490C60.7 506 121.3 538 182 547.3C242.7 556.7 303.3 543.3 363.8 538.7C424.3 534 484.7 538 545.2 538.3C605.7 538.7 666.3 535.3 727 526.3C787.7 517.3 848.3 502.7 909 502.8C969.7 503 1030.3 518 1091 515.8C1151.7 513.7 1212.3 494.3 1273 482.3C1333.7 470.3 1394.3 465.7 1454.8 461.3C1515.3 457 1575.7 453 1636.2 461.7C1696.7 470.3 1757.3 491.7 1818 497C1878.7 502.3 1939.3 491.7 2000 495.8C2060.7 500 2121.3 519 2182 522.2C2242.7 525.3 2303.3 512.7 2363.8 508C2424.3 503.3 2484.7 506.7 2545.2 509.2C2605.7 511.7 2666.3 513.3 2727 504.5C2787.7 495.7 2848.3 476.3 2909 477.5C2969.7 478.7 3030.3 500.3 3091 506.2C3151.7 512 3212.3 502 3273 504.2C3333.7 506.3 3394.3 520.7 3454.8 525C3515.3 529.3 3575.7 523.7 3636.2 526.8C3696.7 530 3757.3 542 3818 536.8C3878.7 531.7 3939.3 509.3 3969.7 498.2L4000 487L4000 601L3969.7 601C3939.3 601 3878.7 601 3818 601C3757.3 601 3696.7 601 3636.2 601C3575.7 601 3515.3 601 3454.8 601C3394.3 601 3333.7 601 3273 601C3212.3 601 3151.7 601 3091 601C3030.3 601 2969.7 601 2909 601C2848.3 601 2787.7 601 2727 601C2666.3 601 2605.7 601 2545.2 601C2484.7 601 2424.3 601 2363.8 601C2303.3 601 2242.7 601 2182 601C2121.3 601 2060.7 601 2000 601C1939.3 601 1878.7 601 1818 601C1757.3 601 1696.7 601 1636.2 601C1575.7 601 1515.3 601 1454.8 601C1394.3 601 1333.7 601 1273 601C1212.3 601 1151.7 601 1091 601C1030.3 601 969.7 601 909 601C848.3 601 787.7 601 727 601C666.3 601 605.7 601 545.2 601C484.7 601 424.3 601 363.8 601C303.3 601 242.7 601 182 601C121.3 601 60.7 601 30.3 601L0 601Z" fill="#173f1c"></path><path d="M0 546L30.3 546.3C60.7 546.7 121.3 547.3 182 547.8C242.7 548.3 303.3 548.7 363.8 545.7C424.3 542.7 484.7 536.3 545.2 535.7C605.7 535 666.3 540 727 543.2C787.7 546.3 848.3 547.7 909 544C969.7 540.3 1030.3 531.7 1091 526C1151.7 520.3 1212.3 517.7 1273 513.3C1333.7 509 1394.3 503 1454.8 502C1515.3 501 1575.7 505 1636.2 508C1696.7 511 1757.3 513 1818 521.5C1878.7 530 1939.3 545 2000 556C2060.7 567 2121.3 574 2182 577.2C2242.7 580.3 2303.3 579.7 2363.8 577C2424.3 574.3 2484.7 569.7 2545.2 564.7C2605.7 559.7 2666.3 554.3 2727 554.8C2787.7 555.3 2848.3 561.7 2909 556.8C2969.7 552 3030.3 536 3091 528.2C3151.7 520.3 3212.3 520.7 3273 522C3333.7 523.3 3394.3 525.7 3454.8 523.3C3515.3 521 3575.7 514 3636.2 519.2C3696.7 524.3 3757.3 541.7 3818 545.5C3878.7 549.3 3939.3 539.7 3969.7 534.8L4000 530L4000 601L3969.7 601C3939.3 601 3878.7 601 3818 601C3757.3 601 3696.7 601 3636.2 601C3575.7 601 3515.3 601 3454.8 601C3394.3 601 3333.7 601 3273 601C3212.3 601 3151.7 601 3091 601C3030.3 601 2969.7 601 2909 601C2848.3 601 2787.7 601 2727 601C2666.3 601 2605.7 601 2545.2 601C2484.7 601 2424.3 601 2363.8 601C2303.3 601 2242.7 601 2182 601C2121.3 601 2060.7 601 2000 601C1939.3 601 1878.7 601 1818 601C1757.3 601 1696.7 601 1636.2 601C1575.7 601 1515.3 601 1454.8 601C1394.3 601 1333.7 601 1273 601C1212.3 601 1151.7 601 1091 601C1030.3 601 969.7 601 909 601C848.3 601 787.7 601 727 601C666.3 601 605.7 601 545.2 601C484.7 601 424.3 601 363.8 601C303.3 601 242.7 601 182 601C121.3 601 60.7 601 30.3 601L0 601Z" fill="#0a3311"></path></svg>