<svg xmlns="http://www.w3.org/2000/svg" width="496" height="82" fill="none"><g fill="#fff" filter="url(#a)"><path d="M18.24 69.12c-1.173 0-2.373-.08-3.6-.24-3.36-.427-5.84-1.413-7.44-2.96-1.547-1.547-2.32-3.227-2.32-5.04 0-1.973.88-3.76 2.64-5.36 1.76-1.653 4.24-2.48 7.44-2.48 2.133 0 4.453.427 6.96 1.28 1.387.48 3.04 1.28 4.96 2.4 1.92 1.12 4.133 2.293 6.64 3.52 2.667-2.56 5.093-5.733 7.28-9.52 2.24-3.787 4.453-7.84 6.64-12.16 2.24-4.373 4.64-8.747 7.2-13.12a81.216 81.216 0 0 1 9.04-12.32l4.64-5.2a72.248 72.248 0 0 0-6.16-.72 66.739 66.739 0 0 0-6.64-.32c-2.88 0-5.84.16-8.88.48-3.04.267-6.08.72-9.12 1.36-5.013 1.067-9.253 2.773-12.72 5.12-3.467 2.347-6.107 4.907-7.92 7.68-1.76 2.72-2.64 5.28-2.64 7.68 0 1.653.453 3.147 1.36 4.48.96 1.28 2.373 2.213 4.24 2.8 1.173.373 2.373.56 3.6.56 1.813 0 3.413-.373 4.8-1.12 1.387-.747 2.56-1.653 3.52-2.72.96-1.12 1.653-2.187 2.08-3.2.48-1.013.693-1.76.64-2.24 0-.373.267-.56.8-.56s.8.4.8 1.2v.08c0 2.187-.667 4.08-2 5.68-1.333 1.6-3.013 2.827-5.04 3.68-1.973.853-3.973 1.28-6 1.28-1.28 0-2.613-.213-4-.64-2.88-1.013-5.013-2.48-6.4-4.4-1.387-1.973-2.08-4.133-2.08-6.48 0-2.187.587-4.427 1.76-6.72 1.227-2.347 3.013-4.56 5.36-6.64 2.347-2.133 5.253-3.973 8.72-5.52 3.52-1.547 7.573-2.64 12.16-3.28 2.453-.373 4.88-.64 7.28-.8 2.4-.16 4.72-.24 6.96-.24 3.093 0 6.107.16 9.04.48 2.987.267 5.787.693 8.4 1.28.747-.64 1.493-1.2 2.24-1.68.8-.48 1.52-.853 2.16-1.12.373-.16.693-.267.96-.32.267-.053.48-.08.64-.08.32 0 .48.107.48.32 0 .267-.4.693-1.2 1.28-.533.373-1.04.8-1.52 1.28-.48.427-.773.747-.88.96 5.44 1.387 9.84 3.307 13.2 5.76 3.413 2.4 5.12 5.253 5.12 8.56 0 1.707-.56 3.573-1.68 5.6-1.173 1.973-2.8 3.573-4.88 4.8a26.564 26.564 0 0 1-6.64 2.64c-2.347.533-4.533.853-6.56.96 1.76.533 3.68 1.333 5.76 2.4a26.664 26.664 0 0 1 5.84 3.76c1.813 1.493 3.013 3.253 3.6 5.28.373 1.28.56 2.587.56 3.92 0 2.827-.827 5.387-2.48 7.68-1.6 2.293-3.76 4.267-6.48 5.92-2.667 1.6-5.6 2.827-8.8 3.68-3.2.907-6.373 1.36-9.52 1.36-1.173 0-2.373-.08-3.6-.24-5.12-.64-9.36-1.44-12.72-2.4-3.307-.96-6.213-2.027-8.72-3.2-5.173 3.893-10.8 5.84-16.88 5.84Zm40.8-2.32c3.307 0 6.32-.507 9.04-1.52 2.72-1.013 5.067-2.347 7.04-4 2.027-1.653 3.573-3.493 4.64-5.52 1.12-2.027 1.68-4.027 1.68-6 0-1.867-.56-3.68-1.68-5.44-1.12-1.76-2.88-3.227-5.28-4.4A39.617 39.617 0 0 0 68 37.44c-2.187-.693-4.08-1.28-5.68-1.76-1.6-.533-2.533-1.067-2.8-1.6 0-.64.267-1.067.8-1.28.587-.267 1.333-.4 2.24-.4 1.067 0 2.347.08 3.84.24 1.493.16 3.067.24 4.72.24 1.707 0 3.44-.373 5.2-1.12 1.813-.8 3.467-1.84 4.96-3.12 1.493-1.333 2.693-2.773 3.6-4.32.96-1.6 1.44-3.227 1.44-4.88 0-1.493-.507-2.96-1.52-4.4-1.013-1.44-2.693-2.693-5.04-3.76-2.347-1.067-4.88-1.92-7.6-2.56-2.667 3.68-5.333 7.813-8 12.4a1063.798 1063.798 0 0 0-8 13.84c-2.667 4.64-5.36 9.04-8.08 13.2-2.72 4.16-5.44 7.733-8.16 10.72a58.841 58.841 0 0 1-1.52 1.6c-.373.32-.88.773-1.52 1.36 2.507 1.013 5.36 1.973 8.56 2.88 3.2.907 6.853 1.547 10.96 1.92.427.053.853.08 1.28.08.48.053.933.08 1.36.08Zm-42.4-.16c2.987.16 5.707-.187 8.16-1.04a26.638 26.638 0 0 0 6.96-3.76L26 59.04a49.949 49.949 0 0 0-6.16-2.72c-1.547-.533-2.96-.8-4.24-.8-1.973 0-3.467.533-4.48 1.6-1.013 1.013-1.52 2.187-1.52 3.52 0 1.387.587 2.72 1.76 4 1.173 1.227 2.933 1.893 5.28 2ZM109.51 66.24c-.587.053-1.253-.08-2-.4-.747-.32-1.413-.907-2-1.76-.533-.853-.8-2.053-.8-3.6 0-1.28.24-2.827.72-4.64a142.174 142.174 0 0 1-2.48 3.76 25.852 25.852 0 0 1-3.28 3.84c-1.013.96-1.973 1.653-2.88 2.08-.907.427-1.733.64-2.48.64-1.387 0-2.507-.613-3.36-1.84-.853-1.28-1.28-2.933-1.28-4.96 0-2.133.533-4.56 1.6-7.28 1.067-2.72 2.8-5.547 5.2-8.48a17.626 17.626 0 0 1 5.6-4.48c2.24-1.173 4.427-1.76 6.56-1.76 1.227 0 2.4.213 3.52.64 1.12.373 2.107 1.013 2.96 1.92.373.373.56.8.56 1.28 0 .32-.133.587-.4.8-.267.213-.613.267-1.04.16-.587-1.867-1.84-2.8-3.76-2.8-.907 0-1.947.293-3.12.88-1.813.96-3.707 2.533-5.68 4.72a49.739 49.739 0 0 0-5.04 6.8c-.213.32-.56.933-1.04 1.84-.427.907-.853 1.92-1.28 3.04a15.804 15.804 0 0 0-.88 3.28c-.053.32-.08.56-.08.72v.56c0 1.76.667 2.64 2 2.64 1.6 0 3.413-1.173 5.44-3.52a46.082 46.082 0 0 0 3.76-5.36 183.94 183.94 0 0 0 3.44-6c.8-1.44 1.547-2.64 2.24-3.6.693-.96 1.68-1.44 2.96-1.44.587 0 1.173.08 1.76.24.587.16 1.2.187 1.84.08-.427.427-1.013 1.227-1.76 2.4a110.898 110.898 0 0 0-2.24 4 50.709 50.709 0 0 0-2.16 4.56c-.64 1.547-1.093 2.88-1.36 4-.053.32-.133.773-.24 1.36a16.06 16.06 0 0 0-.08 1.28c0 1.493.427 2.24 1.28 2.24s1.76-.507 2.72-1.52c1.013-1.013 2-2.267 2.96-3.76a65.404 65.404 0 0 0 2.64-4.48c.8-1.547 1.44-2.8 1.92-3.76.213-.533.533-.8.96-.8.267 0 .4.187.4.56 0 .16-.08.453-.24.88a126.549 126.549 0 0 1-2.32 4.56 66.062 66.062 0 0 1-2.96 4.88c-1.067 1.547-2.187 2.853-3.36 3.92-1.12 1.013-2.267 1.573-3.44 1.68Z"/><path d="M129.315 33.52c-.8 0-1.467-.267-2-.8-.48-.587-.72-1.28-.72-2.08 0-1.013.4-1.893 1.2-2.64.8-.747 1.68-1.12 2.64-1.12.853 0 1.547.267 2.08.8.533.533.8 1.173.8 1.92 0 1.013-.4 1.92-1.2 2.72-.8.8-1.733 1.2-2.8 1.2ZM122.835 66c-1.973 0-3.36-.56-4.16-1.68-.8-1.173-1.2-2.507-1.2-4 0-.8.08-1.6.24-2.4.213-.853.453-1.627.72-2.32l5.36-13.68c.16-.427.24-.8.24-1.12 0-.533-.133-.987-.4-1.36-.267-.427-.453-.72-.56-.88l4.4-.16c.8-.053 1.36.053 1.68.32.373.213.56.48.56.8 0 .32-.187.907-.56 1.76l-6.64 15.6-.48 1.04c-.267.64-.427 1.067-.48 1.28-.16.8-.267 1.307-.32 1.52-.053.213-.08.347-.08.4v.64c0 .693.16 1.28.48 1.76.373.48.987.72 1.84.72.533 0 1.147-.16 1.84-.48.693-.32 1.2-.64 1.52-.96 1.333-1.387 2.64-3.2 3.92-5.44 1.333-2.293 2.56-4.56 3.68-6.8.213-.533.48-.8.8-.8.267 0 .4.187.4.56 0 .213-.08.533-.24.96-.533 1.12-1.2 2.507-2 4.16a39.659 39.659 0 0 1-2.88 4.96c-1.067 1.6-2.24 2.933-3.52 4-1.28 1.067-2.667 1.6-4.16 1.6Z"/><path d="M130.338 68.72c-1.174 0-2.134-.373-2.88-1.12-.16-.16-.24-.32-.24-.48 0-.32.186-.613.56-.88.373-.213.693-.187.96.08.426.427 1.013.64 1.76.64.693 0 1.52-.213 2.48-.64 1.066-.533 2.293-1.653 3.68-3.36 1.386-1.707 2.72-3.733 4-6.08a40.578 40.578 0 0 0 3.04-7.28c.213-1.067.373-2.053.48-2.96.16-.907.24-1.787.24-2.64 0-.8-.107-1.467-.32-2-.214-.533-.614-.8-1.2-.8-.427 0-.987.267-1.681.8-.64.533-1.333 1.413-2.079 2.64a88.243 88.243 0 0 0-1.281 2.4l-2 3.84c-.64 1.28-1.173 2.267-1.599 2.96-.32.48-.587.72-.8.72-.214 0-.32-.187-.32-.56 0-.373.106-.773.32-1.2.32-.64.746-1.52 1.28-2.64l1.839-3.52a60.285 60.285 0 0 1 2-3.44c.694-1.067 1.307-1.84 1.841-2.32a10.77 10.77 0 0 1 1.92-1.2c.746-.373 1.493-.56 2.239-.56 1.547 0 2.614.56 3.201 1.68.586 1.12.88 2.453.88 4 0 1.44-.16 2.933-.48 4.48a53.372 53.372 0 0 1 3.2-5.28c1.173-1.707 2.32-3.12 3.44-4.24 1.173-1.173 2.133-1.867 2.88-2.08.16-.053.32-.08.48-.08h.48c.64 0 1.173.16 1.6.48.48.267.72.72.72 1.36 0 .853-.347 1.6-1.04 2.24-.694.64-1.44.96-2.24.96-1.174 0-1.84-.48-2-1.44-1.654 1.547-3.307 3.653-4.96 6.32-1.6 2.613-2.854 5.2-3.76 7.76-.16 1.013-.24 2-.24 2.96 0 1.6.213 2.933.64 4 .426 1.013 1.013 1.627 1.76 1.84.213.053.506.08.88.08 1.493 0 2.88-.693 4.16-2.08 1.333-1.387 2.586-3.12 3.76-5.2a151.16 151.16 0 0 0 3.44-6.32c.213-.533.506-.8.88-.8.16 0 .266.133.319.4.107.213.081.48-.079.8a322.817 322.817 0 0 1-2.24 4.56c-.8 1.707-1.76 3.36-2.88 4.96-1.067 1.6-2.347 2.933-3.84 4-1.44 1.013-3.12 1.52-5.04 1.52-1.28 0-2.347-.373-3.2-1.12a8.46 8.46 0 0 1-2-2.88c-.427-1.173-.64-2.32-.64-3.44v-2c-1.334 2.613-2.827 4.987-4.48 7.12-1.6 2.08-3.174 3.493-4.72 4.24-1.067.533-2.107.8-3.12.8Z"/><path d="M178.494 66.24c-.586.053-1.253-.08-2-.4-.746-.32-1.413-.907-2-1.76-.533-.853-.8-2.053-.8-3.6 0-1.28.24-2.827.72-4.64a139.695 139.695 0 0 1-2.48 3.76 25.793 25.793 0 0 1-3.28 3.84c-1.013.96-1.973 1.653-2.88 2.08-.906.427-1.733.64-2.48.64-1.386 0-2.506-.613-3.36-1.84-.853-1.28-1.28-2.933-1.28-4.96 0-2.133.534-4.56 1.6-7.28 1.067-2.72 2.8-5.547 5.2-8.48a17.637 17.637 0 0 1 5.6-4.48c2.24-1.173 4.427-1.76 6.56-1.76 1.227 0 2.4.213 3.52.64 1.12.373 2.107 1.013 2.96 1.92.374.373.56.8.56 1.28 0 .32-.133.587-.4.8-.266.213-.613.267-1.04.16-.586-1.867-1.84-2.8-3.76-2.8-.906 0-1.946.293-3.12.88-1.813.96-3.706 2.533-5.68 4.72a49.739 49.739 0 0 0-5.04 6.8c-.213.32-.56.933-1.04 1.84-.426.907-.853 1.92-1.28 3.04a15.848 15.848 0 0 0-.88 3.28c-.053.32-.08.56-.08.72v.56c0 1.76.667 2.64 2 2.64 1.6 0 3.414-1.173 5.44-3.52a46.082 46.082 0 0 0 3.76-5.36 183.94 183.94 0 0 0 3.44-6c.8-1.44 1.547-2.64 2.24-3.6.694-.96 1.68-1.44 2.96-1.44.587 0 1.174.08 1.76.24.587.16 1.2.187 1.84.08-.426.427-1.013 1.227-1.76 2.4a110.898 110.898 0 0 0-2.24 4 50.709 50.709 0 0 0-2.16 4.56c-.64 1.547-1.093 2.88-1.36 4-.053.32-.133.773-.24 1.36a16.06 16.06 0 0 0-.08 1.28c0 1.493.427 2.24 1.28 2.24.854 0 1.76-.507 2.72-1.52 1.014-1.013 2-2.267 2.96-3.76a65.404 65.404 0 0 0 2.64-4.48c.8-1.547 1.44-2.8 1.92-3.76.214-.533.534-.8.96-.8.267 0 .4.187.4.56 0 .16-.08.453-.24.88a126.549 126.549 0 0 1-2.32 4.56 65.72 65.72 0 0 1-2.96 4.88c-1.066 1.547-2.186 2.853-3.36 3.92-1.12 1.013-2.266 1.573-3.44 1.68Z"/><path d="M207.019 66c-1.44 0-2.64-.72-3.6-2.16-.266-.427-.506-.987-.72-1.68-.213-.693-.32-1.467-.32-2.32 0-.48.027-.96.08-1.44.054-.533.16-1.067.32-1.6a101.221 101.221 0 0 1-2.64 3.92 18.394 18.394 0 0 1-3.36 3.68c-1.226 1.013-2.613 1.52-4.16 1.52a6.39 6.39 0 0 1-1.68-.24c-1.44-.427-2.48-1.173-3.12-2.24-.586-1.067-.88-2.347-.88-3.84 0-1.653.32-3.467.96-5.44a39.62 39.62 0 0 1 2.56-5.76c1.067-1.867 2.16-3.467 3.28-4.8 1.6-1.867 3.44-3.36 5.52-4.48 2.08-1.12 4.187-1.68 6.32-1.68 1.92 0 3.734.507 5.44 1.52.8-1.493 1.654-3.147 2.56-4.96a555.912 555.912 0 0 1 2.72-5.52 189.539 189.539 0 0 0 2.4-4.96c.694-1.547 1.227-2.72 1.6-3.52.8-1.867 1.547-3.04 2.24-3.52.747-.533 1.627-.8 2.64-.8.587 0 1.227.08 1.92.24a9.889 9.889 0 0 0 2.16.08c-.32.32-.986 1.253-2 2.8-.96 1.493-2.106 3.413-3.44 5.76a564.389 564.389 0 0 0-4.32 7.76 626.236 626.236 0 0 0-4.48 8.48c-1.44 2.827-2.8 5.52-4.08 8.08-1.226 2.507-2.213 4.667-2.96 6.48-.213.427-.533 1.307-.96 2.64-.373 1.28-.56 2.4-.56 3.36 0 .693.16 1.307.48 1.84.32.48.854.72 1.6.72 1.014 0 2.027-.507 3.04-1.52 1.067-1.067 2.08-2.347 3.04-3.84a66.763 66.763 0 0 0 2.56-4.48c.747-1.493 1.307-2.667 1.68-3.52.267-.587.587-.88.96-.88.32 0 .48.24.48.72v.32c0 .107-.053.24-.16.4-.48 1.12-1.146 2.507-2 4.16a39.659 39.659 0 0 1-2.88 4.96c-1.12 1.653-2.373 3.04-3.76 4.16-1.386 1.067-2.88 1.6-4.48 1.6Zm-13.84-2.4c.747 0 1.68-.4 2.8-1.2 1.12-.853 2.32-2.187 3.6-4 1.494-2.133 3.2-4.8 5.12-8s3.814-6.587 5.68-10.16c-.693-.64-1.493-.96-2.4-.96-1.493 0-3.173.693-5.04 2.08-1.813 1.387-3.6 3.147-5.36 5.28-1.706 2.133-3.146 4.293-4.32 6.48-.8 1.493-1.386 2.853-1.76 4.08-.32 1.227-.48 2.293-.48 3.2 0 2.133.72 3.2 2.16 3.2Z"/><path d="M236.151 66.24c-.587.053-1.254-.08-2-.4-.747-.32-1.414-.907-2-1.76-.534-.853-.8-2.053-.8-3.6 0-1.28.24-2.827.72-4.64a142.174 142.174 0 0 1-2.48 3.76 25.911 25.911 0 0 1-3.28 3.84c-1.014.96-1.974 1.653-2.88 2.08-.907.427-1.734.64-2.48.64-1.387 0-2.507-.613-3.36-1.84-.854-1.28-1.28-2.933-1.28-4.96 0-2.133.533-4.56 1.6-7.28 1.066-2.72 2.8-5.547 5.2-8.48a17.615 17.615 0 0 1 5.6-4.48c2.24-1.173 4.426-1.76 6.56-1.76 1.226 0 2.4.213 3.52.64 1.12.373 2.106 1.013 2.96 1.92.373.373.56.8.56 1.28 0 .32-.134.587-.4.8-.267.213-.614.267-1.04.16-.587-1.867-1.84-2.8-3.76-2.8-.907 0-1.947.293-3.12.88-1.814.96-3.707 2.533-5.68 4.72a49.739 49.739 0 0 0-5.04 6.8c-.214.32-.56.933-1.04 1.84-.427.907-.854 1.92-1.28 3.04a15.785 15.785 0 0 0-.88 3.28c-.054.32-.08.56-.08.72v.56c0 1.76.666 2.64 2 2.64 1.6 0 3.413-1.173 5.44-3.52a46.204 46.204 0 0 0 3.76-5.36 185.8 185.8 0 0 0 3.44-6c.8-1.44 1.546-2.64 2.24-3.6.693-.96 1.68-1.44 2.96-1.44.586 0 1.173.08 1.76.24.586.16 1.2.187 1.84.08-.427.427-1.014 1.227-1.76 2.4a109.384 109.384 0 0 0-2.24 4 50.709 50.709 0 0 0-2.16 4.56c-.64 1.547-1.094 2.88-1.36 4-.054.32-.134.773-.24 1.36-.054.587-.08 1.013-.08 1.28 0 1.493.426 2.24 1.28 2.24.853 0 1.76-.507 2.72-1.52 1.013-1.013 2-2.267 2.96-3.76a65.404 65.404 0 0 0 2.64-4.48c.8-1.547 1.44-2.8 1.92-3.76.213-.533.533-.8.96-.8.266 0 .4.187.4.56 0 .16-.08.453-.24.88a128.214 128.214 0 0 1-2.32 4.56 66.407 66.407 0 0 1-2.96 4.88c-1.067 1.547-2.187 2.853-3.36 3.92-1.12 1.013-2.267 1.573-3.44 1.68ZM292.337 73.36c-5.227 0-10.027-.773-14.4-2.32-4.32-1.547-7.813-3.813-10.48-6.8-2.667-3.04-4.133-6.773-4.4-11.2-.107-1.813.187-3.813.88-6 .693-2.187 1.653-4.347 2.88-6.48a28.735 28.735 0 0 1 4.48-5.84c1.76-1.76 3.627-3.093 5.6-4 .16-.107.4-.187.72-.24.373-.053.64-.08.8-.08.32 0 .48.08.48.24 0 .267-.4.693-1.2 1.28-2.24 1.76-4.08 3.787-5.52 6.08a27.04 27.04 0 0 0-3.36 7.36 28.685 28.685 0 0 0-1.12 7.92c0 3.147.667 5.867 2 8.16 1.387 2.24 3.227 4.08 5.52 5.52 2.293 1.493 4.907 2.587 7.84 3.28 2.933.693 6 1.04 9.2 1.04 3.573 0 7.093-.4 10.56-1.2 3.52-.8 6.72-1.947 9.6-3.44 4.427-2.347 7.92-5.253 10.48-8.72 2.613-3.467 3.92-6.907 3.92-10.32 0-1.813-.4-3.547-1.2-5.2-.747-1.653-1.973-3.147-3.68-4.48-1.28-1.013-2.853-1.973-4.72-2.88a86.278 86.278 0 0 0-5.84-2.64 669.326 669.326 0 0 1-6-2.56c-1.973-.907-3.707-1.867-5.2-2.88-2.133-1.44-3.707-2.987-4.72-4.64-.96-1.653-1.44-3.307-1.44-4.96 0-1.973.56-3.893 1.68-5.76 1.173-1.867 2.747-3.547 4.72-5.04 2.027-1.547 4.293-2.747 6.8-3.6 2.187-.747 4.56-1.333 7.12-1.76a47.615 47.615 0 0 1 7.68-.64c2.08 0 4.053.16 5.92.48 1.92.267 3.6.773 5.04 1.52 1.813.853 3.2 2 4.16 3.44.96 1.387 1.44 2.853 1.44 4.4 0 2.133-.96 4-2.88 5.6a19.396 19.396 0 0 1-2.32 1.52c-.853.427-1.867.8-3.04 1.12-.213.053-.453.08-.72.08-.64 0-.96-.187-.96-.56 0-.213.16-.427.48-.64.373-.267.907-.427 1.6-.48 1.6-.213 2.8-.827 3.6-1.84a5.304 5.304 0 0 0 1.28-3.52c0-1.387-.48-2.747-1.44-4.08-.907-1.387-2.32-2.533-4.24-3.44-1.92-.96-4.373-1.44-7.36-1.44-1.707 0-3.6.187-5.68.56-2.027.373-4.24.987-6.64 1.84-2.933 1.013-5.387 2.507-7.36 4.48-1.92 1.973-2.88 4.08-2.88 6.32 0 1.387.453 2.8 1.36 4.24.96 1.387 2.48 2.72 4.56 4 1.76 1.067 3.76 2.133 6 3.2a705.84 705.84 0 0 1 6.8 3.12c2.293 1.013 4.373 2.107 6.24 3.28 2.933 1.813 5.04 3.76 6.32 5.84 1.28 2.08 1.92 4.213 1.92 6.4 0 2.56-.773 5.147-2.32 7.76-1.493 2.56-3.467 4.987-5.92 7.28a50.4 50.4 0 0 1-8.08 6c-3.413 2.027-7.28 3.573-11.6 4.64a50.843 50.843 0 0 1-12.96 1.68ZM357.557 66.24c-.587.053-1.253-.08-2-.4-.747-.32-1.413-.907-2-1.76-.533-.853-.8-2.053-.8-3.6 0-1.28.24-2.827.72-4.64a142.174 142.174 0 0 1-2.48 3.76 25.852 25.852 0 0 1-3.28 3.84c-1.013.96-1.973 1.653-2.88 2.08-.907.427-1.733.64-2.48.64-1.387 0-2.507-.613-3.36-1.84-.853-1.28-1.28-2.933-1.28-4.96 0-2.133.533-4.56 1.6-7.28 1.067-2.72 2.8-5.547 5.2-8.48a17.626 17.626 0 0 1 5.6-4.48c2.24-1.173 4.427-1.76 6.56-1.76 1.227 0 2.4.213 3.52.64 1.12.373 2.107 1.013 2.96 1.92.373.373.56.8.56 1.28 0 .32-.133.587-.4.8-.267.213-.613.267-1.04.16-.587-1.867-1.84-2.8-3.76-2.8-.907 0-1.947.293-3.12.88-1.813.96-3.707 2.533-5.68 4.72a49.739 49.739 0 0 0-5.04 6.8c-.213.32-.56.933-1.04 1.84-.427.907-.853 1.92-1.28 3.04a15.785 15.785 0 0 0-.88 3.28c-.053.32-.08.56-.08.72v.56c0 1.76.667 2.64 2 2.64 1.6 0 3.413-1.173 5.44-3.52a46.082 46.082 0 0 0 3.76-5.36 183.94 183.94 0 0 0 3.44-6c.8-1.44 1.547-2.64 2.24-3.6.693-.96 1.68-1.44 2.96-1.44.587 0 1.173.08 1.76.24.587.16 1.2.187 1.84.08-.427.427-1.013 1.227-1.76 2.4a110.898 110.898 0 0 0-2.24 4 50.709 50.709 0 0 0-2.16 4.56c-.64 1.547-1.093 2.88-1.36 4-.053.32-.133.773-.24 1.36a16.06 16.06 0 0 0-.08 1.28c0 1.493.427 2.24 1.28 2.24s1.76-.507 2.72-1.52c1.013-1.013 2-2.267 2.96-3.76a65.404 65.404 0 0 0 2.64-4.48c.8-1.547 1.44-2.8 1.92-3.76.213-.533.533-.8.96-.8.267 0 .4.187.4.56 0 .16-.08.453-.24.88a126.549 126.549 0 0 1-2.32 4.56 66.062 66.062 0 0 1-2.96 4.88c-1.067 1.547-2.187 2.853-3.36 3.92-1.12 1.013-2.267 1.573-3.44 1.68Z"/><path d="M360.802 66.64c1.92-3.893 3.76-7.733 5.52-11.52a232.196 232.196 0 0 1 5.52-10.96c1.067-1.92 1.947-3.253 2.64-4 .747-.8 1.733-1.2 2.96-1.2.427 0 .88.08 1.36.24.48.107.96.16 1.44.16.32 0 .56-.027.72-.08-.747.427-1.707 1.493-2.88 3.2-1.173 1.653-2.373 3.573-3.6 5.76a146.952 146.952 0 0 0-3.28 6.16 188.377 188.377 0 0 1 3.12-3.68 38.57 38.57 0 0 1 3.68-3.52c1.28-1.12 2.8-2.267 4.56-3.44 1.813-1.227 3.573-2.24 5.28-3.04 1.707-.8 3.067-1.2 4.08-1.2.373 0 .64.027.8.08l-.88 1.6a133.705 133.705 0 0 0-2.24 4.08 171.296 171.296 0 0 0-2.64 5.36 117.558 117.558 0 0 0-2.48 5.44c-.693 1.707-1.147 3.147-1.36 4.32a8.582 8.582 0 0 0-.24 1.92c0 .853.16 1.413.48 1.68.32.267.667.4 1.04.4 1.013 0 2.08-.533 3.2-1.6 1.12-1.12 2.187-2.48 3.2-4.08 1.067-1.6 2-3.147 2.8-4.64.853-1.547 1.467-2.72 1.84-3.52.213-.427.373-.667.48-.72.107-.107.267-.16.48-.16.32 0 .48.213.48.64 0 .267-.08.56-.24.88a665.74 665.74 0 0 1-2.32 4.4 44.306 44.306 0 0 1-2.96 5.04c-1.12 1.6-2.347 2.96-3.68 4.08-1.333 1.067-2.773 1.6-4.32 1.6-1.067 0-2.187-.373-3.36-1.12-1.12-.747-1.68-2.133-1.68-4.16 0-.587.053-1.2.16-1.84.107-.693.293-1.44.56-2.24a57.632 57.632 0 0 1 1.52-3.44c.587-1.227 1.547-2.907 2.88-5.04.373-.587.587-1.04.64-1.36.107-.32.16-.587.16-.8 0-.64-.293-.96-.88-.96-.48 0-1.2.267-2.16.8-.907.533-2.053 1.467-3.44 2.8-1.333 1.28-2.933 3.093-4.8 5.44-1.813 2.347-3.92 5.813-6.32 10.4-.373.693-.8 1.067-1.28 1.12-.427.053-1.04.107-1.84.16-.533.053-1.04.08-1.52.08-.48.053-.88.213-1.2.48Z"/><path d="M399.197 66c-1.493 0-2.827-.507-4-1.52-1.173-1.067-1.76-2.72-1.76-4.96 0-1.76.32-3.92.96-6.48.693-2.613 1.52-5.307 2.48-8.08 1.013-2.827 2-5.387 2.96-7.68h-4.24c-.373 0-.56-.267-.56-.8 0-.267.053-.507.16-.72a.76.76 0 0 1 .64-.32h4.8c.907-2.027 1.867-4 2.88-5.92s2-3.733 2.96-5.44c1.227-2.133 2.533-3.733 3.92-4.8 1.387-1.067 2.587-1.6 3.6-1.6.8 0 1.467.32 2 .96.533.587.8 1.493.8 2.72 0 .747-.16 1.787-.48 3.12-.32 1.28-.827 2.64-1.52 4.08l-1.6 3.2a38.724 38.724 0 0 1-1.92 3.68h3.84c.373 0 .56.267.56.8 0 .213-.053.453-.16.72-.107.213-.267.32-.48.32h-4.72a59.585 59.585 0 0 1-4.56 6.72c-1.707 2.187-3.733 4.373-6.08 6.56a66.44 66.44 0 0 0-.64 2.08c-.213.907-.427 1.84-.64 2.8-.16.907-.32 1.68-.48 2.32l-.16.96a8.582 8.582 0 0 0-.24 1.92c0 1.12.267 1.947.8 2.48.533.48 1.147.72 1.84.72.427 0 .853-.053 1.28-.16.427-.16.907-.427 1.44-.8 1.867-1.333 3.493-3.147 4.88-5.44a78.95 78.95 0 0 0 3.76-6.64c.32-.64.64-.96.96-.96.213 0 .32.16.32.48 0 .16-.08.453-.24.88-1.173 2.453-2.16 4.427-2.96 5.92-.8 1.493-1.573 2.747-2.32 3.76-.747.96-1.627 1.92-2.64 2.88a7.365 7.365 0 0 1-2.56 1.68c-.96.373-1.92.56-2.88.56Zm6.32-30.56h4.08a98.351 98.351 0 0 0 2.08-4.08 44.476 44.476 0 0 0 1.84-4 18.28 18.28 0 0 0 .96-2.88c.267-1.067.4-1.893.4-2.48 0-.8-.187-1.2-.56-1.2-.267 0-.667.24-1.2.72-.48.427-1.093 1.173-1.84 2.24-.96 1.333-1.92 3.067-2.88 5.2-.907 2.08-1.867 4.24-2.88 6.48Zm-5.2 12.56a49.735 49.735 0 0 0 4.32-5.12 64.935 64.935 0 0 0 3.84-5.6h-3.76a228.268 228.268 0 0 0-2.4 5.76 849.157 849.157 0 0 1-2 4.96Z"/><path d="M420.331 33.52c-.8 0-1.467-.267-2-.8-.48-.587-.72-1.28-.72-2.08 0-1.013.4-1.893 1.2-2.64.8-.747 1.68-1.12 2.64-1.12.853 0 1.546.267 2.08.8.533.533.8 1.173.8 1.92 0 1.013-.4 1.92-1.2 2.72-.8.8-1.734 1.2-2.8 1.2ZM413.851 66c-1.974 0-3.36-.56-4.16-1.68-.8-1.173-1.2-2.507-1.2-4 0-.8.08-1.6.24-2.4.213-.853.453-1.627.72-2.32l5.36-13.68c.16-.427.24-.8.24-1.12 0-.533-.134-.987-.4-1.36-.267-.427-.454-.72-.56-.88l4.4-.16c.8-.053 1.36.053 1.68.32.373.213.56.48.56.8 0 .32-.187.907-.56 1.76l-6.64 15.6-.48 1.04c-.267.64-.427 1.067-.48 1.28-.16.8-.267 1.307-.32 1.52-.054.213-.08.347-.08.4v.64c0 .693.16 1.28.48 1.76.373.48.986.72 1.84.72.533 0 1.146-.16 1.84-.48.693-.32 1.2-.64 1.52-.96 1.333-1.387 2.64-3.2 3.92-5.44 1.333-2.293 2.56-4.56 3.68-6.8.213-.533.48-.8.8-.8.266 0 .4.187.4.56 0 .213-.08.533-.24.96-.534 1.12-1.2 2.507-2 4.16a39.659 39.659 0 0 1-2.88 4.96c-1.067 1.6-2.24 2.933-3.52 4-1.28 1.067-2.667 1.6-4.16 1.6Z"/><path d="M427.273 66.32c-2.613 0-4.48-.667-5.6-2-1.067-1.387-1.6-2.827-1.6-4.32 0-1.227.293-2.347.88-3.36.64-1.013 1.387-1.547 2.24-1.6a750.87 750.87 0 0 0 3.44-6.8 175.124 175.124 0 0 0 3.52-7.12 25.016 25.016 0 0 1 2.8-4.48c1.173-1.44 2.453-2.267 3.84-2.48h.8c.427 0 .8.027 1.12.08.373.053.747.16 1.12.32.587.267.88.667.88 1.2 0 .32-.187.48-.56.48-.16 0-.373-.08-.64-.24-.64-.267-1.2-.4-1.68-.4-.32 0-.613.08-.88.24-1.013.533-1.733 1.28-2.16 2.24a8.32 8.32 0 0 0-.56 3.04c0 .853.08 1.733.24 2.64.213.853.453 1.627.72 2.32.587 1.493 1.2 2.96 1.84 4.4a10.561 10.561 0 0 1 1.04 4.64c0 1.6-.533 3.307-1.6 5.12-1.067 1.76-2.427 3.173-4.08 4.24l.56.08c.267.053.453.08.56.08h.24c1.227 0 2.373-.347 3.44-1.04a13.018 13.018 0 0 0 2.96-2.72c.853-1.067 1.813-2.56 2.88-4.48a81.116 81.116 0 0 0 3.2-6.08c.16-.267.347-.4.56-.4.267 0 .453.107.56.32.16.16.187.373.08.64a132.354 132.354 0 0 1-2.4 4.88 39.217 39.217 0 0 1-2.96 4.96c-1.12 1.547-2.427 2.827-3.92 3.84-1.44.96-3.067 1.44-4.88 1.44-.427 0-.88-.027-1.36-.08-.48-.053-.96-.16-1.44-.32a8.694 8.694 0 0 1-1.68.48 5.29 5.29 0 0 1-1.52.24Zm2.4-2.4c.907-.747 1.707-1.84 2.4-3.28.747-1.44 1.12-3.333 1.12-5.68 0-2.08-.213-4.293-.64-6.64-.427-2.347-.64-4.427-.64-6.24v-.96c.053-.32.107-.613.16-.88-.693 1.44-1.493 3.12-2.4 5.04a258.382 258.382 0 0 1-2.72 5.44c-.907 1.76-1.68 3.253-2.32 4.48l.4.08c.32 0 .613.187.88.56.267.32.373.987.32 2a7.122 7.122 0 0 0 .88 3.76c.693 1.12 1.547 1.893 2.56 2.32Zm-3.04 1.12a4.5 4.5 0 0 0 .88-.08c.267-.107.507-.187.72-.24-.8-.587-1.52-1.36-2.16-2.32-.587-1.013-.933-2.293-1.04-3.84-.96 1.013-1.44 2.107-1.44 3.28 0 .853.267 1.6.8 2.24.533.64 1.28.96 2.24.96Z"/><path d="M449.9 66c-1.493 0-2.827-.507-4-1.52-1.173-1.067-1.76-2.72-1.76-4.96 0-1.76.32-3.92.96-6.48.693-2.613 1.52-5.307 2.48-8.08 1.013-2.827 2-5.387 2.96-7.68h-4.24c-.373 0-.56-.267-.56-.8 0-.267.053-.507.16-.72a.76.76 0 0 1 .64-.32h4.8c.907-2.027 1.867-4 2.88-5.92s2-3.733 2.96-5.44c1.227-2.133 2.533-3.733 3.92-4.8 1.387-1.067 2.587-1.6 3.6-1.6.8 0 1.467.32 2 .96.533.587.8 1.493.8 2.72 0 .747-.16 1.787-.48 3.12-.32 1.28-.827 2.64-1.52 4.08l-1.6 3.2a38.724 38.724 0 0 1-1.92 3.68h3.84c.373 0 .56.267.56.8 0 .213-.053.453-.16.72-.107.213-.267.32-.48.32h-4.72a59.585 59.585 0 0 1-4.56 6.72c-1.707 2.187-3.733 4.373-6.08 6.56a66.44 66.44 0 0 0-.64 2.08c-.213.907-.427 1.84-.64 2.8-.16.907-.32 1.68-.48 2.32l-.16.96a8.582 8.582 0 0 0-.24 1.92c0 1.12.267 1.947.8 2.48.533.48 1.147.72 1.84.72.427 0 .853-.053 1.28-.16.427-.16.907-.427 1.44-.8 1.867-1.333 3.493-3.147 4.88-5.44a78.95 78.95 0 0 0 3.76-6.64c.32-.64.64-.96.96-.96.213 0 .32.16.32.48 0 .16-.08.453-.24.88-1.173 2.453-2.16 4.427-2.96 5.92-.8 1.493-1.573 2.747-2.32 3.76-.747.96-1.627 1.92-2.64 2.88a7.365 7.365 0 0 1-2.56 1.68c-.96.373-1.92.56-2.88.56Zm6.32-30.56h4.08a98.351 98.351 0 0 0 2.08-4.08 44.476 44.476 0 0 0 1.84-4 18.28 18.28 0 0 0 .96-2.88c.267-1.067.4-1.893.4-2.48 0-.8-.187-1.2-.56-1.2-.267 0-.667.24-1.2.72-.48.427-1.093 1.173-1.84 2.24-.96 1.333-1.92 3.067-2.88 5.2-.907 2.08-1.867 4.24-2.88 6.48ZM451.02 48a49.735 49.735 0 0 0 4.32-5.12 64.935 64.935 0 0 0 3.84-5.6h-3.76a228.268 228.268 0 0 0-2.4 5.76 849.157 849.157 0 0 1-2 4.96Z"/><path d="M479.354 66.24c-.587.053-1.254-.08-2-.4-.747-.32-1.414-.907-2-1.76-.534-.853-.8-2.053-.8-3.6 0-1.28.24-2.827.72-4.64a142.174 142.174 0 0 1-2.48 3.76 25.911 25.911 0 0 1-3.28 3.84c-1.014.96-1.974 1.653-2.88 2.08-.907.427-1.734.64-2.48.64-1.387 0-2.507-.613-3.36-1.84-.854-1.28-1.28-2.933-1.28-4.96 0-2.133.533-4.56 1.6-7.28 1.066-2.72 2.8-5.547 5.2-8.48a17.615 17.615 0 0 1 5.6-4.48c2.24-1.173 4.426-1.76 6.56-1.76 1.226 0 2.4.213 3.52.64 1.12.373 2.106 1.013 2.96 1.92.373.373.56.8.56 1.28 0 .32-.134.587-.4.8-.267.213-.614.267-1.04.16-.587-1.867-1.84-2.8-3.76-2.8-.907 0-1.947.293-3.12.88-1.814.96-3.707 2.533-5.68 4.72a49.739 49.739 0 0 0-5.04 6.8c-.214.32-.56.933-1.04 1.84-.427.907-.854 1.92-1.28 3.04a15.785 15.785 0 0 0-.88 3.28c-.054.32-.08.56-.08.72v.56c0 1.76.666 2.64 2 2.64 1.6 0 3.413-1.173 5.44-3.52a46.204 46.204 0 0 0 3.76-5.36 185.8 185.8 0 0 0 3.44-6c.8-1.44 1.546-2.64 2.24-3.6.693-.96 1.68-1.44 2.96-1.44.586 0 1.173.08 1.76.24.586.16 1.2.187 1.84.08-.427.427-1.014 1.227-1.76 2.4a109.384 109.384 0 0 0-2.24 4 50.709 50.709 0 0 0-2.16 4.56c-.64 1.547-1.094 2.88-1.36 4-.054.32-.134.773-.24 1.36-.054.587-.08 1.013-.08 1.28 0 1.493.426 2.24 1.28 2.24.853 0 1.76-.507 2.72-1.52 1.013-1.013 2-2.267 2.96-3.76a65.404 65.404 0 0 0 2.64-4.48c.8-1.547 1.44-2.8 1.92-3.76.213-.533.533-.8.96-.8.266 0 .4.187.4.56 0 .16-.08.453-.24.88a128.214 128.214 0 0 1-2.32 4.56 66.407 66.407 0 0 1-2.96 4.88c-1.067 1.547-2.187 2.853-3.36 3.92-1.12 1.013-2.267 1.573-3.44 1.68Z"/></g><defs><filter id="a" width="494.794" height="80.8" x=".88" y=".56" color-interpolation-filters="sRGB" filterUnits="userSpaceOnUse"><feFlood flood-opacity="0" result="BackgroundImageFix"/><feColorMatrix in="SourceAlpha" result="hardAlpha" values="0 0 0 0 0 0 0 0 0 0 0 0 0 0 0 0 0 0 127 0"/><feOffset dy="4"/><feGaussianBlur stdDeviation="2"/><feComposite in2="hardAlpha" operator="out"/><feColorMatrix values="0 0 0 0 0 0 0 0 0 0 0 0 0 0 0 0 0 0 0.1 0"/><feBlend in2="BackgroundImageFix" result="effect1_dropShadow_15_7501"/><feBlend in="SourceGraphic" in2="effect1_dropShadow_15_7501" result="shape"/></filter></defs></svg>